PathFileType	4	(X/Y/Z)	/home/lloyd/projects/artisynth/mainroot/artisynth_core/src/artisynth/demos/tutorial/data/offMarkers.trc
DataRate	CameraRate	NumFrames	NumMarkers	Units	OrigDataRate	OrigDataStartFrame	OrigNumFrames
50	50	44	7	mm	50	151	201
Frame#	Time	mkr8			mkr4			mkr6			mkr5			mkr7			mkr0			mkr2		
		X1	Y1	Z1	X2	Y2	Z2	X3	Y3	Z3	X4	Y4	Z4	X5	Y5	Z5	X6	Y6	Z6	X7	Y7	Z7

151	 3.0000000	 0.4279354	 0.0045048	 1.0996781	 0.3747021	-0.0182569	 0.9864591	 0.4798145	-0.0220182	 1.0225641	 0.3363438	 0.0181577	 0.4363895	 0.4551038	 0.0236301	 0.2973313	 0.1560348	 0.0151680	 0.3390694	 0.3329417	-0.0060904	 0.1807158
152	 3.0200000	 0.4271456	 0.0045048	 1.1004664	 0.3739123	-0.0182569	 0.9872474	 0.4790247	-0.0220182	 1.0233524	 0.3355316	 0.0181577	 0.4370143	 0.4545501	 0.0236301	 0.2981772	 0.1554040	 0.0151680	 0.3393591	 0.3326050	-0.0060904	 0.1813347
153	 3.0400000	 0.4248104	 0.0045048	 1.1027802	 0.3715771	-0.0182569	 0.9895612	 0.4766895	-0.0220182	 1.0256662	 0.3331322	 0.0181577	 0.4388461	 0.4529095	 0.0236301	 0.3006632	 0.1535423	 0.0151680	 0.3402054	 0.3316065	-0.0060904	 0.1831543
154	 3.0600000	 0.4209698	 0.0045048	 1.1065311	 0.3677365	-0.0182569	 0.9933121	 0.4728489	-0.0220182	 1.0294171	 0.3291925	 0.0181577	 0.4418091	 0.4502013	 0.0236301	 0.3047034	 0.1504923	 0.0151680	 0.3415655	 0.3299546	-0.0060904	 0.1861139
155	 3.0800000	 0.4156510	 0.0045048	 1.1116166	 0.3624177	-0.0182569	 0.9983976	 0.4675301	-0.0220182	 1.0345026	 0.3237492	 0.0181577	 0.4458133	 0.4464305	 0.0236301	 0.3102020	 0.1462919	 0.0151680	 0.3433856	 0.3276472	-0.0060904	 0.1901466
156	 3.1000000	 0.4088710	 0.0045048	 1.1179219	 0.3556377	-0.0182569	 1.0047029	 0.4607501	-0.0220182	 1.0408079	 0.3168313	 0.0181577	 0.4507559	 0.4415906	 0.0236301	 0.3170539	 0.1409757	 0.0151680	 0.3456021	 0.3246740	-0.0060904	 0.1951798
157	 3.1200000	 0.4006394	 0.0045048	 1.1253210	 0.3474061	-0.0182569	 1.0121020	 0.4525185	-0.0220182	 1.0482070	 0.3084626	 0.0181577	 0.4565236	 0.4356670	 0.0236301	 0.3251457	 0.1345766	 0.0151680	 0.3481438	 0.3210184	-0.0060904	 0.2011357
158	 3.1400000	 0.3909613	 0.0045048	 1.1336786	 0.3377280	-0.0182569	 1.0204596	 0.4428404	-0.0220182	 1.0565646	 0.2986636	 0.0181577	 0.4629936	 0.4286389	 0.0236301	 0.3343563	 0.1271268	 0.0151680	 0.3509327	 0.3166591	-0.0060904	 0.2079312
159	 3.1600000	 0.3798399	 0.0045048	 1.1428509	 0.3266066	-0.0182569	 1.0296319	 0.4317190	-0.0220182	 1.0657369	 0.2874542	 0.0181577	 0.4700352	 0.4204824	 0.0236301	 0.3445577	 0.1186591	 0.0151680	 0.3538856	 0.3115723	-0.0060904	 0.2154788
160	 3.1800000	 0.3672790	 0.0045048	 1.1526869	 0.3140457	-0.0182569	 1.0394679	 0.4191581	-0.0220182	 1.0755729	 0.2748556	 0.0181577	 0.4775117	 0.4111729	 0.0236301	 0.3556153	 0.1092083	 0.0151680	 0.3569153	 0.3057331	-0.0060904	 0.2236865
161	 3.2000000	 0.3532856	 0.0045048	 1.1630305	 0.3000523	-0.0182569	 1.0498115	 0.4051647	-0.0220182	 1.0859165	 0.2608926	 0.0181577	 0.4852814	 0.4006874	 0.0236301	 0.3673894	 0.0988121	 0.0151680	 0.3599321	 0.2991178	-0.0060904	 0.2324584
162	 3.2200000	 0.3378718	 0.0045048	 1.1737211	 0.2846385	-0.0182569	 1.0605021	 0.3897509	-0.0220182	 1.0966071	 0.2455952	 0.0181577	 0.4931998	 0.3890070	 0.0236301	 0.3797354	 0.0875123	 0.0151680	 0.3628451	 0.2917050	-0.0060904	 0.2416952
163	 3.2400000	 0.3210571	 0.0045048	 1.1845959	 0.2678238	-0.0182569	 1.0713769	 0.3729362	-0.0220182	 1.1074819	 0.2290003	 0.0181577	 0.5011206	 0.3761185	 0.0236301	 0.3925051	 0.0753554	 0.0151680	 0.3655633	 0.2834771	-0.0060904	 0.2512949
164	 3.2600000	 0.3028700	 0.0045048	 1.1954911	 0.2496367	-0.0182569	 1.0822721	 0.3547491	-0.0220182	 1.1183771	 0.2111531	 0.0181577	 0.5088982	 0.3620168	 0.0236301	 0.4055481	 0.0623933	 0.0151680	 0.3679973	 0.2744221	-0.0060904	 0.2611530
165	 3.2800000	 0.2833491	 0.0045048	 1.2062438	 0.2301158	-0.0182569	 1.0930248	 0.3352282	-0.0220182	 1.1291298	 0.1921081	 0.0181577	 0.5163889	 0.3467060	 0.0236301	 0.4187128	 0.0486837	 0.0151680	 0.3700606	 0.2645342	-0.0060904	 0.2711643
166	 3.3000000	 0.2625449	 0.0045048	 1.2166944	 0.2093116	-0.0182569	 1.1034754	 0.3144240	-0.0220182	 1.1395804	 0.1719301	 0.0181577	 0.5234530	 0.3302009	 0.0236301	 0.4318481	 0.0342904	 0.0151680	 0.3716707	 0.2538152	-0.0060904	 0.2812228
167	 3.3200000	 0.2405199	 0.0045048	 1.2266877	 0.1872866	-0.0182569	 1.1134687	 0.2923990	-0.0220182	 1.1495737	 0.1506942	 0.0181577	 0.5299568	 0.3125283	 0.0236301	 0.4448050	 0.0192835	 0.0151680	 0.3727507	 0.2422751	-0.0060904	 0.2912236
168	 3.3400000	 0.2173493	 0.0045048	 1.2360758	 0.1641160	-0.0182569	 1.1228568	 0.2692284	-0.0220182	 1.1589618	 0.1284864	 0.0181577	 0.5357744	 0.2937273	 0.0236301	 0.4574382	 0.0037387	 0.0151680	 0.3732305	 0.2299330	-0.0060904	 0.3010635
169	 3.3600000	 0.1931211	 0.0045048	 1.2447195	 0.1398878	-0.0182569	 1.1315005	 0.2450002	-0.0220182	 1.1676055	 0.1054033	 0.0181577	 0.5407894	 0.2738500	 0.0236301	 0.4696079	-0.0122626	 0.0151680	 0.3730477	 0.2168171	-0.0060904	 0.3106425
170	 3.3800000	 0.1679356	 0.0045048	 1.2524904	 0.1147023	-0.0182569	 1.1392714	 0.2198147	-0.0220182	 1.1753764	 0.0815512	 0.0181577	 0.5448967	 0.2529616	 0.0236301	 0.4811817	-0.0286343	 0.0151680	 0.3721492	 0.2029651	-0.0060904	 0.3198649
171	 3.4000000	 0.1419049	 0.0045048	 1.2592731	 0.0886717	-0.0182569	 1.1460541	 0.1937841	-0.0220182	 1.1821591	 0.0570460	 0.0181577	 0.5480043	 0.2311400	 0.0236301	 0.4920363	-0.0452859	 0.0151680	 0.3704918	 0.1884242	-0.0060904	 0.3286407
172	 3.4200000	 0.1151519	 0.0045048	 1.2649664	 0.0619186	-0.0182569	 1.1517474	 0.1670310	-0.0220182	 1.1878524	 0.0320115	 0.0181577	 0.5500348	 0.2084752	 0.0236301	 0.5020592	-0.0621240	 0.0151680	 0.3680429	 0.1732506	-0.0060904	 0.3368866
173	 3.4400000	 0.0878089	 0.0045048	 1.2694854	 0.0345756	-0.0182569	 1.1562664	 0.1396880	-0.0220182	 1.1923714	 0.0065780	 0.0181577	 0.5509262	 0.1850690	 0.0236301	 0.5111505	-0.0790530	 0.0151680	 0.3647815	 0.1575092	-0.0060904	 0.3445275
174	 3.4600000	 0.0600162	 0.0045048	 1.2727625	 0.0067829	-0.0182569	 1.1595435	 0.1118953	-0.0220182	 1.1956485	-0.0191185	 0.0181577	 0.5506337	 0.1610330	 0.0236301	 0.5192242	-0.0959766	 0.0151680	 0.3606986	 0.1412728	-0.0060904	 0.3514974
175	 3.4800000	 0.0319201	 0.0045048	 1.2747486	-0.0213132	-0.0182569	 1.1615296	 0.0837992	-0.0220182	 1.1976346	-0.0449391	 0.0181577	 0.5491297	 0.1364880	 0.0236301	 0.5262095	-0.1127987	 0.0151680	 0.3557969	 0.1246211	-0.0060904	 0.3577401
176	 3.5000000	 0.0036713	 0.0045048	 1.2754140	-0.0495620	-0.0182569	 1.1621950	 0.0555504	-0.0220182	 1.1983000	-0.0707430	 0.0181577	 0.5464050	 0.1115620	 0.0236301	 0.5320520	-0.1294250	 0.0151680	 0.3500916	 0.1076400	-0.0060904	 0.3632107
177	 3.5200000	-0.0245775	 0.0045048	 1.2747486	-0.0778108	-0.0182569	 1.1615296	 0.0273016	-0.0220182	 1.1976346	-0.0963900	 0.0181577	 0.5424684	 0.0863886	 0.0236301	 0.5367145	-0.1457643	 0.0151680	 0.3436099	 0.0904202	-0.0060904	 0.3678758
178	 3.5400000	-0.0526736	 0.0045048	 1.2727625	-0.1059069	-0.0182569	 1.1595435	-0.0007945	-0.0220182	 1.1956485	-0.1217423	 0.0181577	 0.5373470	 0.0611050	 0.0236301	 0.5401774	-0.1617295	 0.0151680	 0.3363904	 0.0730559	-0.0060904	 0.3717139
179	 3.5600000	-0.0804663	 0.0045048	 1.2694854	-0.1336996	-0.0182569	 1.1562664	-0.0285872	-0.0220182	 1.1923714	-0.1466660	 0.0181577	 0.5310857	 0.0358503	 0.0236301	 0.5424391	-0.1772393	 0.0151680	 0.3284832	 0.0556436	-0.0060904	 0.3747161
180	 3.5800000	-0.1078094	 0.0045048	 1.2649664	-0.1610426	-0.0182569	 1.1517474	-0.0559302	-0.0220182	 1.1878524	-0.1710338	 0.0181577	 0.5237465	 0.0107636	 0.0236301	 0.5435159	-0.1922188	 0.0151680	 0.3199483	 0.0382808	-0.0060904	 0.3768859
181	 3.6000000	-0.1345624	 0.0045048	 1.2592731	-0.1877957	-0.0182569	 1.1460541	-0.0826833	-0.0220182	 1.1821591	-0.1947258	 0.0181577	 0.5154075	-0.0140183	 0.0236301	 0.5434417	-0.2066007	 0.0151680	 0.3108555	 0.0210644	-0.0060904	 0.3782389
182	 3.6200000	-0.1605931	 0.0045048	 1.2524904	-0.2138263	-0.0182569	 1.1392714	-0.1087139	-0.0220182	 1.1753764	-0.2176316	 0.0181577	 0.5061615	-0.0383623	 0.0236301	 0.5422672	-0.2203261	 0.0151680	 0.3012828	 0.0040899	-0.0060904	 0.3788029
183	 3.6400000	-0.1857785	 0.0045048	 1.2447195	-0.2390118	-0.0182569	 1.1315005	-0.1338994	-0.0220182	 1.1676055	-0.2396512	 0.0181577	 0.4961152	-0.0621405	 0.0236301	 0.5400592	-0.2333453	 0.0151680	 0.2913159	-0.0125503	-0.0060904	 0.3786171
184	 3.6600000	-0.2100068	 0.0045048	 1.2360758	-0.2632400	-0.0182569	 1.1228568	-0.1581276	-0.0220182	 1.1589618	-0.2606961	 0.0181577	 0.4853870	-0.0852321	 0.0236301	 0.5368993	-0.2456176	 0.0151680	 0.2810462	-0.0287675	-0.0060904	 0.3777311
185	 3.6800000	-0.2331773	 0.0045048	 1.2266877	-0.2864106	-0.0182569	 1.1134687	-0.1812982	-0.0220182	 1.1495737	-0.2806900	 0.0181577	 0.4741056	-0.1075243	 0.0236301	 0.5328827	-0.2571122	 0.0151680	 0.2705703	-0.0444781	-0.0060904	 0.3762048
186	 3.7000000	-0.2552023	 0.0045048	 1.2166944	-0.3084356	-0.0182569	 1.1034754	-0.2033232	-0.0220182	 1.1395804	-0.2995694	 0.0181577	 0.4624080	-0.1289132	 0.0236301	 0.5281163	-0.2678078	 0.0151680	 0.2599883	-0.0596038	-0.0060904	 0.3741066
187	 3.7200000	-0.2760065	 0.0045048	 1.2062438	-0.3292398	-0.0182569	 1.0930248	-0.2241274	-0.0220182	 1.1291298	-0.3172831	 0.0181577	 0.4504380	-0.1493045	 0.0236301	 0.5227175	-0.2776925	 0.0151680	 0.2494029	-0.0740724	-0.0060904	 0.3715127
188	 3.7400000	-0.2955274	 0.0045048	 1.1954911	-0.3487607	-0.0182569	 1.0822721	-0.2436483	-0.0220182	 1.1183771	-0.3337924	 0.0181577	 0.4383442	-0.1686140	 0.0236301	 0.5168121	-0.2867632	 0.0151680	 0.2389180	-0.0878184	-0.0060904	 0.3685055
189	 3.7600000	-0.3137145	 0.0045048	 1.1845959	-0.3669478	-0.0182569	 1.0713769	-0.2618354	-0.0220182	 1.1074819	-0.3490704	 0.0181577	 0.4262779	-0.1867674	 0.0236301	 0.5105324	-0.2950250	 0.0151680	 0.2286378	-0.1007826	-0.0060904	 0.3651729
190	 3.7800000	-0.3305292	 0.0045048	 1.1737211	-0.3837625	-0.0182569	 1.0605021	-0.2786501	-0.0220182	 1.0966071	-0.3631010	 0.0181577	 0.4143920	-0.2036999	 0.0236301	 0.5040157	-0.3024903	 0.0151680	 0.2186654	-0.1129124	-0.0060904	 0.3616064
191	 3.8000000	-0.3459430	 0.0045048	 1.1630305	-0.3991763	-0.0182569	 1.0498115	-0.2940639	-0.0220182	 1.0859165	-0.3758774	 0.0181577	 0.4028389	-0.2193558	 0.0236301	 0.4974017	-0.3091780	 0.0151680	 0.2091027	-0.1241610	-0.0060904	 0.3579000
192	 3.8200000	-0.3599364	 0.0045048	 1.1526869	-0.4131697	-0.0182569	 1.0394679	-0.3080573	-0.0220182	 1.0755729	-0.3874013	 0.0181577	 0.3917693	-0.2336878	 0.0236301	 0.4908314	-0.3151117	 0.0151680	 0.2000489	-0.1344876	-0.0060904	 0.3541489
193	 3.8400000	-0.3724973	 0.0045048	 1.1428509	-0.4257306	-0.0182569	 1.0296319	-0.3206182	-0.0220182	 1.0657369	-0.3976805	 0.0181577	 0.3813309	-0.2466551	 0.0236301	 0.4844447	-0.3203191	 0.0151680	 0.1916002	-0.1438559	-0.0060904	 0.3504481
194	 3.8600000	-0.3836187	 0.0045048	 1.1336786	-0.4368520	-0.0182569	 1.0204596	-0.3317396	-0.0220182	 1.0565646	-0.4067270	 0.0181577	 0.3716667	-0.2582225	 0.0236301	 0.4783791	-0.3248298	 0.0151680	 0.1838493	-0.1522338	-0.0060904	 0.3468909
